<svg width="78" height="17" viewBox="0 0 78 17" fill="none" xmlns="http://www.w3.org/2000/svg">
<path d="M3.03837 3.04C3.03837 2.224 2.92637 1.624 2.70237 1.24C2.47837 0.839999 2.03037 0.639999 1.35837 0.639999H0.878373V0.159999H10.4544C11.8144 0.159999 12.4944 0.799999 12.4944 2.08V3.88H12.0144C12.0144 2.04 11.0144 1.12 9.01437 1.12H5.19837V7.48H10.6224V8.44H5.19837V16H3.03837V3.04ZM15.7906 3.28C15.4226 3.28 15.1026 3.128 14.8306 2.824C14.5746 2.52 14.4466 2.16 14.4466 1.744C14.4466 1.408 14.5426 1.144 14.7346 0.951999C14.9426 0.759999 15.2146 0.663999 15.5506 0.663999C15.9186 0.663999 16.2306 0.815999 16.4866 1.12C16.7586 1.424 16.8946 1.784 16.8946 2.2C16.8946 2.536 16.7906 2.8 16.5826 2.992C16.3906 3.184 16.1266 3.28 15.7906 3.28ZM14.8786 7.6C14.8786 6.784 14.7666 6.184 14.5426 5.8C14.3186 5.4 13.8706 5.2 13.1986 5.2H12.7186V4.72H14.8786C15.4706 4.72 15.9106 4.8 16.1986 4.96C16.5026 5.104 16.7186 5.376 16.8466 5.776C16.9746 6.176 17.0386 6.784 17.0386 7.6V16H14.8786V7.6ZM20.2569 7.6C20.2569 6.784 20.1449 6.184 19.9209 5.8C19.6969 5.4 19.2489 5.2 18.5769 5.2H18.3369V4.72H20.2569C20.8649 4.72 21.3209 4.808 21.6249 4.984C21.9449 5.144 22.1689 5.416 22.2969 5.8H22.4169C22.7049 5.432 23.0889 5.12 23.5689 4.864C24.0649 4.608 24.6409 4.48 25.2969 4.48C25.9369 4.48 26.4169 4.6 26.7369 4.84C27.0089 5.048 27.2889 5.408 27.5769 5.92L26.6169 6.64C26.4409 6.4 26.1849 6.224 25.8489 6.112C25.5129 5.984 25.1289 5.92 24.6969 5.92C24.2169 5.92 23.7769 6.032 23.3769 6.256C22.9769 6.464 22.6569 6.752 22.4169 7.12V16H20.2569V7.6ZM33.425 16.24C32.337 16.24 31.417 15.984 30.665 15.472C29.913 14.944 29.345 14.24 28.961 13.36C28.577 12.464 28.385 11.464 28.385 10.36C28.385 9.272 28.577 8.28 28.961 7.384C29.345 6.488 29.897 5.784 30.617 5.272C31.353 4.744 32.209 4.48 33.185 4.48C34.801 4.48 36.001 4.936 36.785 5.848C37.585 6.744 37.985 8.048 37.985 9.76L37.937 10.72H30.665C30.665 12.064 30.953 13.16 31.529 14.008C32.105 14.856 32.897 15.28 33.905 15.28C34.657 15.28 35.289 15.12 35.801 14.8C36.329 14.48 36.817 14 37.265 13.36L37.745 13.72C37.217 14.6 36.601 15.24 35.897 15.64C35.193 16.04 34.369 16.24 33.425 16.24ZM35.705 9.76C35.705 8.352 35.497 7.28 35.081 6.544C34.665 5.808 34.033 5.44 33.185 5.44C32.705 5.44 32.273 5.632 31.889 6.016C31.505 6.384 31.201 6.896 30.977 7.552C30.769 8.208 30.665 8.944 30.665 9.76H35.705ZM44.1598 16.24C42.3197 16.24 41.0797 15.92 40.4397 15.28C40.1677 15.008 39.9997 14.704 39.9357 14.368C39.8717 14.016 39.8397 13.48 39.8397 12.76H40.3197C40.4637 13.56 40.8077 14.184 41.3517 14.632C41.9117 15.064 42.6877 15.28 43.6797 15.28C44.5597 15.28 45.2157 15.128 45.6477 14.824C46.0957 14.52 46.3197 14.112 46.3197 13.6C46.3197 13.136 46.1437 12.736 45.7918 12.4C45.4558 12.064 44.9118 11.744 44.1598 11.44L42.7198 10.84C41.7597 10.456 41.0397 10.008 40.5597 9.496C40.0797 8.984 39.8397 8.352 39.8397 7.6C39.8397 6.624 40.2077 5.864 40.9437 5.32C41.6797 4.76 42.6317 4.48 43.7998 4.48C45.5597 4.48 46.7597 4.8 47.3998 5.44C47.6718 5.712 47.8398 6.016 47.9038 6.352C47.9678 6.688 47.9998 7.224 47.9998 7.96H47.5198C47.3918 7.16 47.0558 6.544 46.5118 6.112C45.9678 5.664 45.2237 5.44 44.2797 5.44C43.5277 5.44 42.9357 5.6 42.5037 5.92C42.0877 6.224 41.8797 6.624 41.8797 7.12C41.8797 7.952 42.5197 8.632 43.7998 9.16L45.2398 9.76C46.3277 10.208 47.1198 10.688 47.6158 11.2C48.1118 11.696 48.3598 12.336 48.3598 13.12C48.3598 14.096 47.9678 14.864 47.1838 15.424C46.3998 15.968 45.3918 16.24 44.1598 16.24ZM52.0147 3.28C51.6467 3.28 51.3267 3.128 51.0547 2.824C50.7987 2.52 50.6707 2.16 50.6707 1.744C50.6707 1.408 50.7667 1.144 50.9587 0.951999C51.1667 0.759999 51.4387 0.663999 51.7747 0.663999C52.1427 0.663999 52.4547 0.815999 52.7107 1.12C52.9827 1.424 53.1187 1.784 53.1187 2.2C53.1187 2.536 53.0147 2.8 52.8067 2.992C52.6147 3.184 52.3507 3.28 52.0147 3.28ZM51.1027 7.6C51.1027 6.784 50.9907 6.184 50.7667 5.8C50.5427 5.4 50.0947 5.2 49.4227 5.2H48.9427V4.72H51.1027C51.6947 4.72 52.1347 4.8 52.4227 4.96C52.7267 5.104 52.9427 5.376 53.0707 5.776C53.1987 6.176 53.2627 6.784 53.2627 7.6V16H51.1027V7.6ZM60.0089 16.24C58.6169 16.24 57.5449 15.688 56.7929 14.584C56.0569 13.48 55.6889 12.072 55.6889 10.36C55.6889 8.648 56.0729 7.24 56.8409 6.136C57.6249 5.032 58.7609 4.48 60.2489 4.48C60.8569 4.48 61.3929 4.544 61.8569 4.672C62.3209 4.8 62.7849 4.976 63.2489 5.2V3.04C63.2489 2.224 63.1369 1.624 62.9129 1.24C62.6889 0.839999 62.2409 0.639999 61.5689 0.639999H61.0889V0.159999H63.2489C63.8409 0.159999 64.2809 0.239999 64.5689 0.399999C64.8729 0.543999 65.0889 0.815999 65.2169 1.216C65.3449 1.616 65.4089 2.224 65.4089 3.04V16H64.2089L63.3689 14.92H63.2489C62.8969 15.32 62.4809 15.64 62.0009 15.88C61.5369 16.12 60.8729 16.24 60.0089 16.24ZM60.7289 15.28C61.3849 15.28 61.8809 15.16 62.2169 14.92C62.5529 14.68 62.8969 14.32 63.2489 13.84V6.16C62.7689 5.936 62.3529 5.76 62.0009 5.632C61.6489 5.504 61.3049 5.44 60.9689 5.44C59.9449 5.44 59.1849 5.888 58.6889 6.784C58.2089 7.68 57.9689 8.872 57.9689 10.36C57.9689 11.832 58.2009 13.024 58.6649 13.936C59.1289 14.832 59.8169 15.28 60.7289 15.28ZM72.9069 16.24C71.8189 16.24 70.8989 15.984 70.1469 15.472C69.3949 14.944 68.8269 14.24 68.4429 13.36C68.0589 12.464 67.8669 11.464 67.8669 10.36C67.8669 9.272 68.0589 8.28 68.4429 7.384C68.8269 6.488 69.3789 5.784 70.0989 5.272C70.8349 4.744 71.6909 4.48 72.6669 4.48C74.2829 4.48 75.4829 4.936 76.2669 5.848C77.0669 6.744 77.4669 8.048 77.4669 9.76L77.4189 10.72H70.1469C70.1469 12.064 70.4349 13.16 71.0109 14.008C71.5869 14.856 72.3789 15.28 73.3869 15.28C74.1389 15.28 74.7709 15.12 75.2829 14.8C75.8109 14.48 76.2989 14 76.7469 13.36L77.2269 13.72C76.6989 14.6 76.0829 15.24 75.3789 15.64C74.6749 16.04 73.8509 16.24 72.9069 16.24ZM75.1869 9.76C75.1869 8.352 74.9789 7.28 74.5629 6.544C74.1469 5.808 73.5149 5.44 72.6669 5.44C72.1869 5.44 71.7549 5.632 71.3709 6.016C70.9869 6.384 70.6829 6.896 70.4589 7.552C70.2509 8.208 70.1469 8.944 70.1469 9.76H75.1869Z" fill="#FF0000"/>
</svg>
